<svg id="Layer_1" data-name="Layer 1" xmlns="http://www.w3.org/2000/svg" viewBox="0 0 512 512"><defs><style>.cls-1{fill:#141f38;}</style></defs><title>headphones-glyph</title><path class="cls-1" d="M417.6,281.6h17.6V512H417.6a59.2,59.2,0,0,1-59.2-59.2v-112A59.2,59.2,0,0,1,417.6,281.6Zm-323.2,0H76.8V512H94.4a59.2,59.2,0,0,0,59.2-59.2v-112A59.2,59.2,0,0,0,94.4,281.6ZM442.73,81l.31-.31-9.39-9a256,256,0,0,0-351.8-3.23h0l-.14.14-9.58,8.91.23.23A257,257,0,0,0,0,256V480a32,32,0,0,0,32,32H51.2V281.6H25.6V256A231.24,231.24,0,0,1,90.48,95.78l6.95,6.95c15.42,15.41,39.38,17.79,56.95,5.66a179.16,179.16,0,0,1,206,2,44.07,44.07,0,0,0,25.83,8.34,45.65,45.65,0,0,0,32.29-13.53l6.12-6.12A228.54,228.54,0,0,1,486.4,256v25.6H460.8V512H480a32,32,0,0,0,32-32V256A254,254,0,0,0,442.73,81Z"/></svg>