<svg id="Layer_1" data-name="Layer 1" xmlns="http://www.w3.org/2000/svg" viewBox="0 0 512 512"><title>light_bulb</title><path d="M256,512,32,384V128L256,0,480,128V384ZM39.88,379.43,256,502.9,472.12,379.43V132.57L256,9.1,39.88,132.57Z" fill="#231f20"/><path d="M256,160a59.91,59.91,0,0,0-51.29,91c.23.33,5.58,8.09,8.07,11.41,10.65,14.17,17.29,30,19.23,45.88V344h16v8h16v-8h16V308.3c1.93-15.86,8.57-31.72,19.23-45.89,2.48-3.31,7.84-11.07,8.2-11.61A59.91,59.91,0,0,0,256,160Zm16,176H240v-8h32Zm-32-16v-8h32v8Zm60.71-73.54c-.05.08-5.49,8-7.88,11.14-10.75,14.3-17.73,30.28-20.31,46.4H260V234.27l18.06-10.84-4.12-6.86L256,227.34l-17.93-10.77-4.12,6.86L252,234.26V304H239.47c-2.57-16.12-9.55-32.09-20.3-46.4-2.37-3.16-7.73-10.93-7.74-10.93h0a52,52,0,1,1,89.28-.21Z" fill="#231f20"/></svg>