<svg id="Layer_1" data-name="Layer 1" xmlns="http://www.w3.org/2000/svg" xmlns:xlink="http://www.w3.org/1999/xlink" viewBox="0 0 512 512"><defs><linearGradient id="New_Gradient_Swatch_1" x1="256" x2="256" y2="512" gradientUnits="userSpaceOnUse"><stop offset="0" stop-color="#ededee"/><stop offset="0.76" stop-color="#cfd0d2"/><stop offset="1" stop-color="#a6a8ab"/></linearGradient><linearGradient id="New_Gradient_Swatch_2" x1="256" y1="399.41" x2="256" y2="112.59" gradientUnits="userSpaceOnUse"><stop offset="0" stop-color="#231f20"/><stop offset="1" stop-color="#6d6e70"/></linearGradient></defs><title>download</title><path d="M256,512c141,0,256-115,256-256S397,0,256,0,0,115,0,256,115,512,256,512Z" fill-rule="evenodd" fill="url(#New_Gradient_Swatch_1)"/><path d="M353.72,307.36l-70.94,70.08c-28.89,28.53-46.46,29.75-75.7.88l-72.28-71.4c-18.73-18.5-6.07-34.31,16.12-34.31h29.79V131.53a19.11,19.11,0,0,1,19.17-18.93h89A19.11,19.11,0,0,1,308,131.53V272.61h32.69C366,272.61,369,292.28,353.72,307.36Z" fill="#fff" fill-rule="evenodd"/><path d="M365.36,307.36l-71,70.08c-28.88,28.53-46.46,29.75-75.68.88l-72.29-71.4c-18.73-18.5-6.07-34.31,16.12-34.31h29.79V131.53a19.11,19.11,0,0,1,19.17-18.93h89a19.11,19.11,0,0,1,19.17,18.93V272.61h32.67C377.61,272.61,380.61,292.28,365.36,307.36Z" fill-rule="evenodd" fill="url(#New_Gradient_Swatch_2)"/></svg>